<svg width="151" height="151" viewBox="0 0 151 151" fill="none" xmlns="http://www.w3.org/2000/svg">
<path d="M149.224 25.4624C150.981 27.2202 150.981 30.4429 149.224 32.2007L136.626 44.7983C134.575 46.5562 132.231 47.4351 129.888 47.4351H17.0947C12.9932 47.4351 10.0635 44.5054 10.0635 40.4038V16.9663C10.0635 13.1577 12.9932 9.93506 17.0947 9.93506H66.3135V5.24756C66.3135 2.90381 68.3643 0.560059 71.001 0.560059H80.376C82.7197 0.560059 85.0635 2.90381 85.0635 5.24756V9.93506H129.888C132.231 9.93506 134.868 11.1069 136.626 12.8647L149.224 25.4624ZM66.3135 145.873V113.06H85.0635V145.873C85.0635 148.509 82.7197 150.56 80.376 150.56H71.001C68.3643 150.56 66.3135 148.509 66.3135 145.873ZM134.282 66.1851C138.091 66.1851 141.313 69.4077 141.313 73.2163V96.6538C141.313 100.755 138.091 103.685 134.282 103.685H21.1963C18.8525 103.685 16.5088 102.806 14.751 101.048L1.86035 88.4507C0.102539 86.6929 0.102539 83.4702 1.86035 81.7124L14.751 69.1147C16.5088 67.3569 18.8525 66.1851 21.1963 66.1851H66.3135V56.8101H85.0635V66.1851H134.282Z" fill="#C0C0C0"/>
</svg>
