<svg width="61" height="62" viewBox="0 0 61 62" fill="none" xmlns="http://www.w3.org/2000/svg">
<g clip-path="url(#clip0_1_176)">
<path d="M40.0824 34.7027C40.0824 34.0016 40.4135 33.651 41.0757 33.651C41.7379 33.651 42.069 34.0016 42.069 34.7027C42.069 35.4039 41.8158 36.0077 41.3094 36.514C40.803 37.0204 40.1992 37.2736 39.4981 37.2736C38.7969 37.2736 38.1932 37.0204 37.6868 36.514C37.1804 36.0077 36.9272 35.4039 36.9272 34.7027C36.9272 34.0016 37.2583 33.651 37.9205 33.651C38.5827 33.651 38.9138 34.0016 38.9138 34.7027C38.9138 35.0923 39.1086 35.287 39.4981 35.287C39.8876 35.287 40.0824 35.0923 40.0824 34.7027ZM49.2557 36.514C49.2557 36.514 49.1292 36.6406 48.876 36.8938C48.6228 37.147 48.1261 37.2736 47.386 37.2736C46.6459 37.2736 46.0227 37.0204 45.5163 36.514C45.0099 36.0077 44.7567 35.4039 44.7567 34.7027C44.7567 34.0016 45.1073 33.651 45.8084 33.651C46.5096 33.651 46.8601 34.0016 46.8601 34.7027C46.8601 35.0923 47.0354 35.287 47.386 35.287C47.7366 35.287 47.9119 35.0923 47.9119 34.7027C47.9119 34.0016 48.2625 33.651 48.9636 33.651C49.6647 33.651 50.0153 34.0016 50.0153 34.7027C50.0153 35.4039 49.7621 36.0077 49.2557 36.514ZM33.1877 36.5725V30.2621C33.1877 28.0808 33.7915 26.1331 34.999 24.4192C36.2066 22.7053 37.7842 21.4588 39.7318 20.6797C40.4329 20.1344 41.212 19.8617 42.069 19.8617H48.613C50.6386 19.8617 52.372 20.5824 53.8132 22.0236C55.2545 23.4649 55.9751 25.1983 55.9751 27.2238C55.9751 27.4575 55.8777 27.6718 55.6829 27.8665C55.4882 28.0613 55.235 28.1587 54.9234 28.1587H53.7548V36.5725C53.7548 39.3771 52.742 41.7921 50.7165 43.8177C50.3269 44.2072 49.9374 44.5578 49.5479 44.8694V46.5054H53.0536C55.0792 46.5054 56.8321 47.2455 58.3123 48.7257C59.7925 50.2059 60.5326 51.9588 60.5326 53.9843V59.4767C60.4547 60.1778 60.1041 60.5674 59.4808 60.6453H27.8123C27.1111 60.5674 26.7605 60.1778 26.7605 59.4767V53.9843C26.7605 51.9588 27.4812 50.2059 28.9224 48.7257C30.3637 47.2455 32.0971 46.5054 34.1226 46.5054H37.6283V45.1031C37.083 44.7136 36.6156 44.2851 36.2261 43.8177C34.2005 41.7921 33.1877 39.3771 33.1877 36.5725ZM42.5364 58.5418V51.2966L38.3295 48.6089H34.1226C32.6424 48.6089 31.3959 49.1347 30.3831 50.1865C29.3704 51.2382 28.864 52.5041 28.864 53.9843V58.5418H42.5364ZM39.7318 47.0897L43.4713 49.5437L47.4444 47.0897V46.038C46.198 46.6612 44.8346 46.9728 43.3544 46.9728C42.1079 46.9728 40.9004 46.7391 39.7318 46.2717V47.0897ZM53.0536 48.6089H48.8467L44.523 51.4135V58.5418H58.4291V53.9843C58.4291 52.5041 57.9033 51.2382 56.8515 50.1865C55.7998 49.1347 54.5338 48.6089 53.0536 48.6089ZM51.6513 36.5725V28.1587H42.4195C40.4719 30.5737 38.0958 31.8592 35.2912 32.015V36.5725C35.2133 38.8317 35.9923 40.7794 37.6283 42.4154C39.1865 44.0514 41.1146 44.8694 43.4128 44.8694C45.711 44.8694 47.6392 44.0514 49.1973 42.4154C50.8333 40.7794 51.6513 38.8317 51.6513 36.5725ZM42.069 21.9652C41.5236 21.9652 41.0367 22.16 40.6082 22.5495C40.1798 22.939 39.9655 23.4259 39.9655 24.0102C39.9655 24.5945 40.1798 25.1009 40.6082 25.5294C41.0367 25.9578 41.5236 26.1721 42.069 26.1721H53.8716C53.56 24.9256 52.9173 23.9128 51.9435 23.1338C50.9697 22.3547 49.8595 21.9652 48.613 21.9652H42.069ZM37.9789 24.0686C36.1871 25.6267 35.2522 27.5744 35.1743 29.9115C37.0441 29.8336 38.6801 29.0935 40.0824 27.6912C38.6801 26.9122 37.9789 25.7047 37.9789 24.0686ZM10.751 20.9135C10.751 20.9135 10.4783 21.1667 9.93295 21.673C9.38761 22.1794 8.2385 22.4326 6.48563 22.4326C4.73276 22.4326 3.31098 21.9262 2.2203 20.9135C1.12963 19.9007 0.58429 18.6152 0.58429 17.0571C0.58429 16.6676 0.779053 16.356 1.16858 16.1223L5.49234 4.43645L5.60919 4.3196V4.20274H5.72605V4.08588H5.84291V3.96902H5.95977L6.07663 3.85216H6.19348C6.19348 3.85216 6.21296 3.85216 6.25191 3.85216C6.29087 3.85216 6.3493 3.85216 6.4272 3.85216H6.54406H6.66092H15.3084C15.3863 3.38473 15.5616 2.97572 15.8343 2.62515C16.107 2.27457 16.4575 1.98243 16.886 1.74871C17.3145 1.515 17.7625 1.39814 18.2299 1.39814C18.6194 1.39814 18.97 1.45657 19.2816 1.57343C19.5932 1.69028 19.8854 1.86557 20.158 2.09929C20.4307 2.333 20.6644 2.5862 20.8592 2.85886C21.054 3.13153 21.1903 3.46264 21.2682 3.85216H29.7988H29.9157H30.0326H30.1494H30.2663H30.3831H30.5V3.96902H30.6169L30.7337 4.08588L30.8506 4.20274V4.3196H30.9674V4.43645L35.2912 16.1223C35.6807 16.356 35.8755 16.6676 35.8755 17.0571C35.8755 18.6152 35.3301 19.9007 34.2395 20.9135C33.1488 21.9262 31.7465 22.4326 30.0326 22.4326C29.1756 22.4326 28.3771 22.2963 27.637 22.0236C26.8969 21.7509 26.2736 21.3809 25.7672 20.9135C25.2609 20.446 24.8519 19.8812 24.5402 19.219C24.2286 18.5568 24.0728 17.8362 24.0728 17.0571C24.0728 16.6676 24.2676 16.356 24.6571 16.1223L28.5134 5.83875H21.0345C20.645 6.61781 20.0607 7.12419 19.2816 7.35791V21.4978H20.0996C21.6577 21.5757 22.6705 22.3547 23.1379 23.8349C23.6833 23.9128 23.9559 24.2634 23.9559 24.8866V27.4575C23.9559 28.0808 23.6443 28.3924 23.0211 28.3924H13.4387C12.8155 28.3924 12.5038 28.0808 12.5038 27.4575V24.8866C12.5038 24.2634 12.8155 23.9128 13.4387 23.8349C13.9061 22.3547 14.9189 21.5757 16.477 21.4978H17.295V7.35791C16.4381 7.12419 15.8538 6.61781 15.5421 5.83875H7.94636L11.8027 16.1223C12.1922 16.356 12.387 16.6676 12.387 17.0571C12.387 18.6152 11.8416 19.9007 10.751 20.9135ZM30.0326 20.446C31.9802 20.446 33.2267 19.667 33.772 18.1089H26.2931C26.7605 19.667 28.007 20.446 30.0326 20.446ZM30.0326 7.70848L26.8774 16.1223H33.0709L30.0326 7.70848ZM21.9693 26.4058V25.9384H14.6073V26.4058H21.9693ZM20.0996 23.6012H16.477C16.2433 23.6012 16.0485 23.6791 15.8927 23.8349H20.6839C20.5281 23.6791 20.3333 23.6012 20.0996 23.6012ZM19.2816 4.49488C19.2816 4.49488 19.2816 4.32933 19.2816 3.99823C19.2816 3.66713 18.931 3.50159 18.2299 3.50159C17.5287 3.50159 17.1782 3.83268 17.1782 4.49488C17.1782 5.15708 17.5287 5.48817 18.2299 5.48817C18.931 5.48817 19.2816 5.15708 19.2816 4.49488ZM6.4272 7.70848L3.38889 16.1223H9.58237L6.4272 7.70848ZM10.1667 18.1089H2.8046C3.19412 19.667 4.40166 20.446 6.4272 20.446C8.45274 20.446 9.69923 19.667 10.1667 18.1089Z" fill="#C89D66"/>
</g>
<defs>
<clipPath id="clip0_1_176">
<rect width="60" height="61" fill="white" transform="matrix(1 0 0 -1 0.5 61.5801)"/>
</clipPath>
</defs>
</svg>
