<svg width="61" height="54" viewBox="0 0 61 54" fill="none" xmlns="http://www.w3.org/2000/svg">
<path d="M54.875 26.9999C57.9219 26.9999 60.5 29.578 60.5 32.6249V47.6249C60.5 50.7889 57.9219 53.2499 54.875 53.2499H39.875C36.7109 53.2499 34.25 50.7889 34.25 47.6249V19.4999C34.25 9.18738 42.5703 0.749878 53 0.749878H53.9375C55.4609 0.749878 56.75 2.03894 56.75 3.56238V9.18738C56.75 10.828 55.4609 11.9999 53.9375 11.9999H53C48.7812 11.9999 45.5 15.3983 45.5 19.4999V26.9999H54.875ZM21.125 26.9999C24.1719 26.9999 26.75 29.578 26.75 32.6249V47.6249C26.75 50.7889 24.1719 53.2499 21.125 53.2499H6.125C2.96094 53.2499 0.5 50.7889 0.5 47.6249V19.4999C0.5 9.18738 8.82031 0.749878 19.25 0.749878H20.1875C21.7109 0.749878 23 2.03894 23 3.56238V9.18738C23 10.828 21.7109 11.9999 20.1875 11.9999H19.25C15.0312 11.9999 11.75 15.3983 11.75 19.4999V26.9999H21.125Z" fill="white" fill-opacity="0.3"/>
</svg>
