<svg width="16" height="16" viewBox="0 0 16 16" fill="none" xmlns="http://www.w3.org/2000/svg">
<path d="M7.8207 0.367432C11.8582 0.367432 15.1832 3.69243 15.1832 7.72993C15.1832 11.7971 11.8582 15.0924 7.8207 15.0924C3.75352 15.0924 0.458203 11.7971 0.458203 7.72993C0.458203 3.69243 3.75352 0.367432 7.8207 0.367432ZM7.8207 1.79243C4.52539 1.79243 1.8832 4.46431 1.8832 7.72993C1.8832 11.0252 4.52539 13.6674 7.8207 13.6674C11.0863 13.6674 13.7582 11.0252 13.7582 7.72993C13.7582 4.46431 11.0863 1.79243 7.8207 1.79243ZM11.977 5.68149C12.0957 5.80024 12.0957 6.03774 11.977 6.18618L6.84102 11.2627C6.69258 11.4112 6.48477 11.4112 6.33633 11.2627L3.63477 8.53149C3.51602 8.41274 3.51602 8.17524 3.63477 8.02681L4.31758 7.37368C4.46602 7.22524 4.67383 7.22524 4.82227 7.37368L6.60352 9.15493L10.7895 4.99868C10.9379 4.85024 11.1754 4.85024 11.2941 4.99868L11.977 5.68149Z" fill="#C89D66"/>
</svg>
