<svg width="61" height="62" viewBox="0 0 61 62" fill="none" xmlns="http://www.w3.org/2000/svg">
<g clip-path="url(#clip0_1_158)">
<path d="M50.0153 44.5188C51.2618 44.8304 52.3525 45.3757 53.2874 46.1548C54.2222 46.9338 54.9428 47.8687 55.4492 48.9594C55.9556 50.0501 56.2088 51.2186 56.2088 52.4651V58.1912C56.2088 59.0481 55.9167 59.7688 55.3324 60.3531C54.7481 60.9373 54.0275 61.2295 53.1705 61.2295H3.6226C2.76564 61.2295 2.04502 60.9373 1.46073 60.3531C0.876435 59.7688 0.58429 59.0481 0.58429 58.1912V52.4651C0.58429 50.5954 1.1491 48.9204 2.27873 47.4402C3.40836 45.96 4.90804 44.9862 6.77778 44.5188L10.5172 43.5839C10.5951 43.1165 10.8289 42.8438 11.2184 42.7659L17.1782 40.7793C17.4119 40.3898 17.6845 40.0782 17.9962 39.8444L19.5153 38.9096C15.8538 35.3259 14.023 30.7295 14.023 25.1203C14.023 24.9645 14.023 24.7697 14.023 24.536C13.9451 24.4581 13.9061 24.3802 13.9061 24.3023C13.205 20.9524 12.6596 16.5507 12.2701 11.0973C12.1143 9.30548 12.6402 7.76685 13.8477 6.48141C15.0552 5.19597 16.5549 4.55325 18.3467 4.55325H18.6973C21.0345 2.4498 24.2676 1.39808 28.3965 1.39808C30.7337 1.39808 33.1488 1.55389 35.6418 1.86551C38.0568 2.25504 40.0239 3.38467 41.5431 5.2544C43.0623 7.12413 43.7439 9.26653 43.5881 11.6816C43.3544 15.5769 43.0428 19.1605 42.6533 22.4326C42.5753 22.5105 42.5364 22.5494 42.5364 22.5494C42.6922 23.4843 42.7701 24.3412 42.7701 25.1203C42.7701 30.7295 40.9393 35.3259 37.2778 38.9096L38.7969 39.8444C39.1086 40.0782 39.3812 40.3898 39.6149 40.7793L45.5747 42.7659C45.9642 42.8438 46.198 43.1165 46.2759 43.5839L50.0153 44.5188ZM38.9138 49.4268C38.758 49.1152 38.7385 48.8036 38.8554 48.4919C38.9722 48.1803 39.1865 47.9856 39.4981 47.9077L43.1207 47.0896L44.0556 44.285L40.0824 42.8827C40.0045 43.1944 39.9266 43.467 39.8487 43.7008C39.0696 45.181 38.1347 47.0117 37.0441 49.1931L35.6418 52.1145L35.5249 52.2314C35.5249 52.2314 35.5249 52.2704 35.5249 52.3483C34.8238 54.218 34.5121 56.5162 34.59 59.2429H37.0441L40.6667 52.1145L38.9138 49.4268ZM31.318 59.2429H32.6034C32.6034 56.5941 32.9151 54.257 33.5383 52.2314C32.8372 51.6082 32.136 51.0628 31.4349 50.5954V50.946C31.4349 51.725 31.1232 52.3093 30.5 52.6988L31.318 59.2429ZM24.1897 59.2429H25.4751L26.2931 52.6988C25.6699 52.3093 25.3582 51.725 25.3582 50.946V50.5954C24.6571 51.0628 23.9559 51.6082 23.2548 52.2314C23.9559 54.257 24.2676 56.5941 24.1897 59.2429ZM28.3965 48.8425C28.0849 48.9983 27.7344 49.1931 27.3448 49.4268V50.946C27.3448 51.0239 27.3448 51.0628 27.3448 51.0628H29.4483C29.4483 51.0628 29.4483 51.0239 29.4483 50.946V49.4268C29.0587 49.1931 28.7082 48.9983 28.3965 48.8425ZM28.1628 52.9326L27.4617 59.2429H29.3314L28.6303 52.9326H28.1628ZM38.0958 42.8827C38.4074 42.2595 38.2905 41.7921 37.7452 41.4804L36.8103 40.7793L30.1494 47.5571C31.5517 48.2582 32.954 49.1931 34.3563 50.3617C35.0575 48.9594 36.304 46.4664 38.0958 42.8827ZM40.7835 25.1203L40.9004 25.2372C40.9004 25.1592 40.9004 25.1203 40.9004 25.1203C40.9004 23.1727 40.3161 20.7186 39.1475 17.7582H38.5632C29.1367 17.8361 22.3978 17.2129 18.3467 15.8885C16.7107 18.6152 15.8927 21.6925 15.8927 25.1203C15.8927 25.1203 15.8927 25.1592 15.8927 25.2372L16.0096 25.1203H19.1647V24.0686C19.1647 23.4453 19.4764 23.1337 20.0996 23.1337H26.2931C26.9943 23.1337 27.3448 23.4453 27.3448 24.0686V24.3023C27.6564 24.2244 28.007 24.1854 28.3965 24.1854C28.7861 24.1854 29.1367 24.2244 29.4483 24.3023V24.0686C29.4483 23.4453 29.7988 23.1337 30.5 23.1337H36.6935C37.3167 23.1337 37.6283 23.4453 37.6283 24.0686V25.1203H40.7835ZM14.1398 10.9804C14.3736 13.863 14.6462 16.4728 14.9579 18.81C15.5032 17.1739 16.2043 15.6548 17.0613 14.2525C17.3729 13.785 17.7625 13.6682 18.2299 13.9019C20.0996 14.5252 22.281 14.9926 24.7739 15.3042C27.2669 15.6158 29.3704 15.7911 31.0843 15.8301C32.7982 15.869 35.2912 15.8885 38.5632 15.8885H39.7318C40.1992 15.8885 40.5109 16.0833 40.6667 16.4728C40.8225 16.8623 40.9783 17.2908 41.1341 17.7582C41.3678 15.5769 41.5626 13.5124 41.7184 11.5647C41.7963 9.6171 41.2315 7.90318 40.0239 6.42298C38.8164 4.94278 37.2778 4.08582 35.408 3.8521C32.993 3.54048 30.6558 3.38467 28.3965 3.38467C24.6571 3.38467 21.7746 4.31953 19.749 6.18926C19.5932 6.34507 19.3595 6.42298 19.0479 6.42298H18.3467C17.1003 6.42298 16.068 6.87094 15.25 7.76685C14.432 8.66276 14.0619 9.73396 14.1398 10.9804ZM16.0096 27.1069C16.3991 30.9243 17.7819 34.1379 20.158 36.7477C22.5342 39.3575 25.2803 40.6624 28.3965 40.6624C31.5128 40.6624 34.2589 39.3575 36.6351 36.7477C39.0112 34.1379 40.394 30.9243 40.7835 27.1069H37.6283V27.2237C37.6283 27.847 37.2973 28.1586 36.6351 28.1586C35.9729 28.1586 35.6418 27.847 35.6418 27.2237V25.0034H34.59V26.172C34.59 26.7953 34.2589 27.1069 33.5967 27.1069C32.9345 27.1069 32.6034 26.7953 32.6034 26.172V25.0034H31.4349V27.2237C31.4349 27.847 31.1038 28.1586 30.4416 28.1586C29.7794 28.1586 29.4483 27.847 29.4483 27.2237C29.4483 26.4447 29.0977 26.0552 28.3965 26.0552C27.6954 26.0552 27.3448 26.4447 27.3448 27.2237C27.3448 27.847 27.0137 28.1586 26.3515 28.1586C25.6893 28.1586 25.3582 27.847 25.3582 27.2237V25.0034H24.1897V26.172C24.1897 26.7953 23.8586 27.1069 23.1964 27.1069C22.5342 27.1069 22.2031 26.7953 22.2031 26.172V25.0034H21.1513V27.2237C21.1513 27.847 20.8202 28.1586 20.158 28.1586C19.4958 28.1586 19.1647 27.847 19.1647 27.2237V27.1069H16.0096ZM33.3046 41.5973C31.7465 42.2985 30.1105 42.649 28.3965 42.649C26.6826 42.649 25.0466 42.2985 23.4885 41.5973L28.3965 46.5054L33.3046 41.5973ZM19.0479 41.4804C18.5026 41.7921 18.3857 42.2595 18.6973 42.8827C20.567 46.6222 21.8135 49.1152 22.4368 50.3617C23.8391 49.1931 25.2414 48.2582 26.6437 47.5571L19.9828 40.7793L19.0479 41.4804ZM16.7107 42.8827L12.7375 44.285L13.6724 47.0896L17.295 47.9077C17.6066 47.9856 17.8209 48.1803 17.9377 48.4919C18.0546 48.8036 18.0351 49.1152 17.8793 49.4268L16.1264 51.9977L19.749 59.2429H22.3199C22.3199 56.5162 21.9693 54.218 21.2682 52.3483C21.2682 52.3483 21.2292 52.2704 21.1513 52.1145L19.749 49.1931C19.0479 47.7908 18.113 45.96 16.9444 43.7008C16.8665 43.467 16.7886 43.1944 16.7107 42.8827ZM2.45402 58.1912C2.45402 58.8923 2.84355 59.2429 3.6226 59.2429H9.81609V56.0877C9.81609 55.4645 10.1472 55.1529 10.8094 55.1529C11.4716 55.1529 11.8027 55.4645 11.8027 56.0877V59.2429H17.5287L14.1398 52.4651C13.9061 52.0756 13.9061 51.725 14.1398 51.4134L15.4253 49.5437L12.6207 48.8425C12.3091 48.6867 12.0753 48.453 11.9195 48.1414L11.1015 45.4536L7.24521 46.3885C5.84291 46.778 4.6938 47.5376 3.79789 48.6672C2.90198 49.7969 2.45402 51.0628 2.45402 52.4651V58.1912ZM54.3391 58.1912V52.4651C54.3391 51.0628 53.8911 49.7969 52.9952 48.6672C52.0993 47.5376 50.9502 46.778 49.5479 46.3885L45.6916 45.4536L44.8736 48.1414C44.7178 48.453 44.484 48.6867 44.1724 48.8425L41.3678 49.5437L42.6533 51.4134C42.887 51.725 42.887 52.0756 42.6533 52.4651L39.2644 59.2429H44.9904V56.0877C44.9904 55.4645 45.3215 55.1529 45.9837 55.1529C46.6459 55.1529 46.977 55.4645 46.977 56.0877V59.2429H53.1705C53.9496 59.2429 54.3391 58.8923 54.3391 58.1912ZM23.7222 35.1701C23.1769 34.7806 23.0795 34.3326 23.4301 33.8262C23.7806 33.3199 24.2286 33.2225 24.7739 33.5341C25.7088 34.1573 26.9163 34.469 28.3965 34.469C29.8768 34.469 31.0843 34.1573 32.0192 33.5341C32.5645 33.2225 33.0125 33.3199 33.363 33.8262C33.7136 34.3326 33.6162 34.7806 33.0709 35.1701C31.9023 36.0271 30.3442 36.4555 28.3965 36.4555C26.4489 36.4555 24.8908 36.0271 23.7222 35.1701Z" fill="#C89D66"/>
</g>
<defs>
<clipPath id="clip0_1_158">
<rect width="60" height="61" fill="white" transform="matrix(1 0 0 -1 0.5 61.5801)"/>
</clipPath>
</defs>
</svg>
