<svg width="33" height="32" viewBox="0 0 33 32" fill="none" xmlns="http://www.w3.org/2000/svg">
<path d="M32.7244 21.0275L17.5823 0.515059C17.4514 0.354143 17.2863 0.224421 17.099 0.135325C16.9117 0.0462288 16.7069 0 16.4994 0C16.292 0 16.0872 0.0462288 15.8999 0.135325C15.7126 0.224421 15.5475 0.354143 15.4166 0.515059L0.274526 21.0275C0.105591 21.2695 0.0202616 21.5601 0.0315013 21.855C0.042741 22.1499 0.149935 22.4331 0.336799 22.6615C0.523664 22.89 0.779985 23.0512 1.06682 23.1207C1.35366 23.1901 1.65534 23.1641 1.92602 23.0465L11.0247 18.8067C11.2293 18.7125 21.7709 18.7125 21.9741 18.8067L31.0729 23.0465C31.2511 23.1299 31.4454 23.1731 31.6422 23.173C32.8249 22.9936 33.1856 22.2784 32.7244 21.0275Z" fill="white"/>
<path d="M32.6933 29.1034L17.5512 8.5909C17.4205 8.42952 17.2554 8.29939 17.0679 8.21C16.8805 8.12061 16.6754 8.07422 16.4677 8.07422C16.26 8.07422 16.055 8.12061 15.8675 8.21C15.6801 8.29939 15.5149 8.42952 15.3842 8.5909L0.242125 29.1034C0.0739975 29.3456 -0.0106254 29.6361 0.00106754 29.9307C0.0127605 30.2254 0.120133 30.5082 0.306929 30.7364C0.493726 30.9645 0.749776 31.1256 1.03632 31.1953C1.32286 31.2649 1.62428 31.2393 1.89497 31.1223L16.4677 24.3225L31.0405 31.1223C31.2187 31.2057 31.413 31.2489 31.6098 31.2489C31.8572 31.2447 32.0987 31.173 32.3083 31.0416C32.5179 30.9102 32.6877 30.724 32.7992 30.5032C32.9107 30.2823 32.9598 30.0352 32.9411 29.7885C32.9225 29.5418 32.8368 29.3049 32.6933 29.1034Z" fill="#72BF44"/>
</svg>
