<svg width="61" height="62" viewBox="0 0 61 62" fill="none" xmlns="http://www.w3.org/2000/svg">
<g clip-path="url(#clip0_1_167)">
<path d="M55.8582 22.4326C56.4036 22.5884 56.6762 22.9389 56.6762 23.4843C56.6762 25.7435 55.8777 27.5938 54.2807 29.035C52.6836 30.4763 50.6386 31.1969 48.1456 31.1969C45.7305 31.1969 43.7439 30.5737 42.1858 29.3272C40.4719 27.847 39.6149 25.8994 39.6149 23.4843C39.6149 22.9389 39.8876 22.5884 40.4329 22.4326L46.5096 7.35785H32.4866C31.9412 8.60433 31.0453 9.38339 29.7988 9.69501V32.7161H38.2126C39.2254 32.7161 40.1408 33.0277 40.9588 33.6509C41.7768 34.2742 42.3027 35.0532 42.5364 35.9881C42.6922 36.6893 42.7117 37.332 42.5948 37.9163C42.478 38.5006 42.2248 39.0654 41.8352 39.6107C41.4457 40.1561 40.9393 40.5845 40.3161 40.8962C41.173 41.9089 41.5042 43.058 41.3094 44.3435C41.1146 45.6289 40.4719 46.6222 39.3812 47.3234C40.3161 48.3361 40.6667 49.5437 40.4329 50.946C40.1992 52.3483 39.4591 53.4 38.2126 54.1011C39.4591 55.5034 39.6734 57.0421 38.8554 58.717C38.0374 60.392 36.6935 61.2295 34.8238 61.2295H20.9176C19.2037 61.2295 17.5677 60.84 16.0096 60.0609L14.2567 59.126V60.0609C14.2567 60.84 13.9061 61.2295 13.205 61.2295H4.32375C3.6226 61.2295 3.27203 60.84 3.27203 60.0609V34.469C3.27203 33.6899 3.6226 33.3004 4.32375 33.3004H13.205C13.9061 33.3004 14.2567 33.6899 14.2567 34.469V34.8195L16.0096 33.8847C17.5677 33.1056 19.2037 32.7161 20.9176 32.7161H27.5785V9.69501C26.3321 9.38339 25.3972 8.60433 24.7739 7.35785H10.8678L16.9444 22.4326C17.4898 22.5884 17.7625 22.9389 17.7625 23.4843C17.7625 25.7435 16.9639 27.5938 15.3669 29.035C13.7698 30.4763 11.6858 31.1969 9.11494 31.1969C6.77778 31.1969 4.83014 30.5737 3.27203 29.3272C1.4802 27.847 0.58429 25.8994 0.58429 23.4843C0.58429 22.9389 0.856959 22.5884 1.4023 22.4326L8.18007 5.72183C8.18007 5.72183 8.18007 5.68288 8.18007 5.60497L8.29693 5.48811V5.37125H8.41379V5.2544H8.53065L8.64751 5.13754H8.76437L8.88122 5.02068H8.99808H9.11494H9.2318H9.34866H9.46552C9.46552 5.02068 9.50447 5.05963 9.58237 5.13754C9.58237 5.13754 9.60185 5.13754 9.6408 5.13754C9.67976 5.13754 9.69923 5.13754 9.69923 5.13754V5.2544H24.4234C24.5792 4.16372 25.0466 3.24833 25.8257 2.50823C26.6047 1.76813 27.5396 1.39808 28.6303 1.39808C29.7209 1.39808 30.6753 1.76813 31.4933 2.50823C32.3113 3.24833 32.7593 4.16372 32.8372 5.2544H47.5613V5.13754H47.6782C47.6782 5.13754 47.7171 5.13754 47.795 5.13754V5.02068H47.9119H48.0287H48.1456H48.2625H48.3793H48.4962C48.4962 5.02068 48.4962 5.05963 48.4962 5.13754H48.613H48.7299V5.2544H48.8467L48.9636 5.37125L49.0805 5.48811V5.60497C49.1584 5.68288 49.1973 5.72183 49.1973 5.72183L55.8582 22.4326ZM9.11494 29.0935C10.6731 29.0935 12.0559 28.7039 13.2634 27.9249C14.4709 27.1458 15.1916 26.0552 15.4253 24.6529H2.92145C3.15517 25.8994 3.79789 26.9511 4.84962 27.808C5.90134 28.665 7.32311 29.0935 9.11494 29.0935ZM14.4904 22.4326L9.11494 9.11072L3.73946 22.4326H14.4904ZM12.1533 59.0092V35.5207H5.37548V59.0092H12.1533ZM38.2126 34.8195H20.9176C19.5153 34.8195 18.2299 35.1312 17.0613 35.7544L14.2567 37.2736V56.672L17.0613 58.0743C18.2299 58.6976 19.5153 59.0092 20.9176 59.0092H34.8238C35.2912 59.0092 35.6807 58.9118 35.9923 58.717C36.304 58.5223 36.5572 58.2691 36.7519 57.9575C36.9467 57.6458 37.0441 57.2953 37.0441 56.9057C37.0441 56.2825 36.8298 55.7566 36.4013 55.3282C35.9729 54.8997 35.447 54.6854 34.8238 54.6854H31.9023C31.1232 54.6854 30.7337 54.3154 30.7337 53.5753C30.7337 52.8352 31.1232 52.4651 31.9023 52.4651H36.1092C36.7324 52.4651 37.2583 52.2509 37.6868 51.8224C38.1153 51.3939 38.3295 50.8875 38.3295 50.3032C38.3295 49.719 38.1153 49.2126 37.6868 48.7841C37.2583 48.3556 36.7324 48.1414 36.1092 48.1414H32.8372C32.0581 48.1414 31.6686 47.7713 31.6686 47.0312C31.6686 46.2911 32.0581 45.9211 32.8372 45.9211H36.9272C37.5504 45.9211 38.0763 45.7068 38.5048 45.2783C38.9333 44.8499 39.1475 44.324 39.1475 43.7008C39.1475 43.0775 38.9333 42.5322 38.5048 42.0647C38.0763 41.5973 37.5504 41.3636 36.9272 41.3636H33.772C32.993 41.3636 32.6034 41.013 32.6034 40.3119C32.6034 39.6107 32.993 39.2601 33.772 39.2601H38.2126C38.8359 39.2601 39.3617 39.0459 39.7902 38.6174C40.2187 38.1889 40.4329 37.6631 40.4329 37.0398C40.4329 36.4166 40.2187 35.8907 39.7902 35.4623C39.3617 35.0338 38.8359 34.8195 38.2126 34.8195ZM27.228 7.0657C27.228 7.0657 27.3253 7.17282 27.5201 7.38706C27.7149 7.6013 28.0849 7.70842 28.6303 7.70842C29.1756 7.70842 29.6625 7.49418 30.091 7.0657C30.5195 6.63722 30.7337 6.15031 30.7337 5.60497C30.7337 5.05963 30.5195 4.5922 30.091 4.20267C29.6625 3.81314 29.1756 3.61838 28.6303 3.61838C28.0849 3.61838 27.6175 3.81314 27.228 4.20267C26.8384 4.5922 26.6437 5.05963 26.6437 5.60497C26.6437 6.15031 26.8384 6.63722 27.228 7.0657ZM48.1456 9.11072L42.7701 22.4326H53.5211L48.1456 9.11072ZM48.1456 29.0935C49.0805 29.0935 49.9958 28.9377 50.8918 28.626C51.7877 28.3144 52.5473 27.808 53.1705 27.1069C53.7937 26.4057 54.2222 25.5877 54.4559 24.6529H41.8352C42.069 25.8994 42.7117 26.9511 43.7634 27.808C44.8151 28.665 46.2759 29.0935 48.1456 29.0935Z" fill="#C89D66"/>
</g>
<defs>
<clipPath id="clip0_1_167">
<rect width="60" height="61" fill="white" transform="matrix(1 0 0 -1 0.5 61.5801)"/>
</clipPath>
</defs>
</svg>
