<svg width="153" height="39" viewBox="0 0 153 39" fill="none" xmlns="http://www.w3.org/2000/svg">
<path d="M32.7244 25.0275L17.5823 4.51506C17.4514 4.35414 17.2863 4.22442 17.099 4.13532C16.9117 4.04623 16.7069 4 16.4994 4C16.292 4 16.0872 4.04623 15.8999 4.13532C15.7126 4.22442 15.5475 4.35414 15.4166 4.51506L0.274526 25.0275C0.105591 25.2695 0.0202616 25.5601 0.0315013 25.855C0.042741 26.1499 0.149935 26.4331 0.336799 26.6615C0.523664 26.89 0.779985 27.0512 1.06682 27.1207C1.35366 27.1901 1.65534 27.1641 1.92602 27.0465L11.0247 22.8067C11.2293 22.7125 21.7709 22.7125 21.9741 22.8067L31.0729 27.0465C31.2511 27.1299 31.4454 27.1731 31.6422 27.173C32.8249 26.9936 33.1856 26.2784 32.7244 25.0275Z" fill="white"/>
<path d="M32.6933 33.1034L17.5512 12.5909C17.4205 12.4295 17.2554 12.2994 17.0679 12.21C16.8805 12.1206 16.6754 12.0742 16.4677 12.0742C16.26 12.0742 16.055 12.1206 15.8675 12.21C15.6801 12.2994 15.5149 12.4295 15.3842 12.5909L0.242125 33.1034C0.0739975 33.3456 -0.0106254 33.6361 0.00106754 33.9307C0.0127605 34.2254 0.120133 34.5082 0.306929 34.7364C0.493726 34.9645 0.749776 35.1256 1.03632 35.1953C1.32286 35.2649 1.62428 35.2393 1.89497 35.1223L16.4677 28.3225L31.0405 35.1223C31.2187 35.2057 31.413 35.2489 31.6098 35.2489C31.8572 35.2447 32.0987 35.173 32.3083 35.0416C32.5179 34.9102 32.6877 34.724 32.7992 34.5032C32.9107 34.2823 32.9598 34.0352 32.9411 33.7885C32.9225 33.5418 32.8368 33.3049 32.6933 33.1034Z" fill="#72BF44"/>
<path d="M50.855 2.351C51.3673 2.33333 52.339 2.3245 53.77 2.3245C55.2187 2.3245 56.1992 2.33333 56.7115 2.351C58.5312 2.38633 59.9622 2.87217 61.0045 3.8085C62.0468 4.74483 62.568 6.04333 62.568 7.704C62.568 8.88767 62.303 9.93883 61.773 10.8575C61.243 11.7585 60.4922 12.4563 59.5205 12.951C58.5665 13.4457 57.48 13.693 56.261 13.693H54.5385V20H50.855V2.351ZM56.102 10.566C56.9677 10.566 57.639 10.3187 58.116 9.824C58.6107 9.32933 58.858 8.658 58.858 7.81C58.858 6.25533 58.0012 5.478 56.2875 5.478H54.5385V10.566H56.102ZM65.2147 0.654999H68.9512V8.34C69.4989 7.52733 70.126 6.9355 70.8327 6.5645C71.5394 6.17583 72.352 5.9815 73.2707 5.9815C74.737 5.9815 75.8854 6.42317 76.7157 7.3065C77.546 8.17217 77.9612 9.38233 77.9612 10.937V20H74.2247V11.52C74.2247 10.8133 74.048 10.2657 73.6947 9.877C73.3414 9.47067 72.8644 9.2675 72.2637 9.2675C71.61 9.2675 70.9829 9.49717 70.3822 9.9565C69.7992 10.3982 69.3222 10.99 68.9512 11.732V20H65.2147V0.654999ZM85.3634 20.3975C83.95 20.3975 82.8282 19.7968 81.9979 18.5955C81.1675 17.3942 80.7524 15.76 80.7524 13.693C80.7524 11.1843 81.3884 9.27633 82.6604 7.969C83.9324 6.644 85.7609 5.9815 88.1459 5.9815C89.4885 5.9815 91.0609 6.1935 92.8629 6.6175V20H89.3119L89.3914 17.827H89.2854C88.8261 18.6573 88.2607 19.2933 87.5894 19.735C86.9357 20.1767 86.1937 20.3975 85.3634 20.3975ZM86.1584 17.138C86.706 17.138 87.2449 16.8465 87.7749 16.2635C88.3049 15.6805 88.7995 14.9032 89.2589 13.9315V9.4795C88.6936 9.3205 88.1282 9.241 87.5629 9.241C86.5029 9.241 85.699 9.60317 85.1514 10.3275C84.6214 11.0518 84.3564 12.1207 84.3564 13.534C84.3564 14.647 84.5154 15.5303 84.8334 16.184C85.1514 16.82 85.593 17.138 86.1584 17.138ZM96.5041 6.3525H100.241V8.5785H100.453C100.965 7.6775 101.468 7.015 101.963 6.591C102.475 6.167 103.111 5.955 103.871 5.955C104.189 5.955 104.454 5.99033 104.666 6.061L104.269 10.089C103.809 9.96533 103.438 9.9035 103.156 9.9035C102.749 9.9035 102.387 9.983 102.069 10.142C101.769 10.301 101.495 10.513 101.248 10.778C101.018 11.043 100.682 11.4493 100.241 11.997V20H96.5041V6.3525ZM107.009 6.3525H110.666V8.4725C111.744 6.81183 113.201 5.9815 115.039 5.9815C116.081 5.9815 116.964 6.22883 117.689 6.7235C118.431 7.2005 118.969 7.8895 119.305 8.7905C119.923 7.81883 120.612 7.11217 121.372 6.6705C122.149 6.21117 123.033 5.9815 124.022 5.9815C125.488 5.9815 126.628 6.42317 127.441 7.3065C128.271 8.17217 128.686 9.38233 128.686 10.937V20H124.95V11.52C124.95 10.8133 124.773 10.2657 124.42 9.877C124.084 9.47067 123.625 9.2675 123.042 9.2675C122.317 9.2675 121.646 9.56783 121.028 10.1685C120.409 10.7692 119.95 11.5377 119.65 12.474V20H115.913V11.52C115.913 10.831 115.736 10.2833 115.383 9.877C115.03 9.47067 114.562 9.2675 113.979 9.2675C113.325 9.2675 112.707 9.51483 112.124 10.0095C111.558 10.4865 111.099 11.1667 110.746 12.05V20H107.009V6.3525ZM136.086 20.3975C134.673 20.3975 133.551 19.7968 132.721 18.5955C131.89 17.3942 131.475 15.76 131.475 13.693C131.475 11.1843 132.111 9.27633 133.383 7.969C134.655 6.644 136.484 5.9815 138.869 5.9815C140.211 5.9815 141.784 6.1935 143.586 6.6175V20H140.035L140.114 17.827H140.008C139.549 18.6573 138.983 19.2933 138.312 19.735C137.658 20.1767 136.916 20.3975 136.086 20.3975ZM136.881 17.138C137.429 17.138 137.968 16.8465 138.498 16.2635C139.028 15.6805 139.522 14.9032 139.982 13.9315V9.4795C139.416 9.3205 138.851 9.241 138.286 9.241C137.226 9.241 136.422 9.60317 135.874 10.3275C135.344 11.0518 135.079 12.1207 135.079 13.534C135.079 14.647 135.238 15.5303 135.556 16.184C135.874 16.82 136.316 17.138 136.881 17.138Z" fill="white"/>
<path d="M51.8925 26.5085H53.754V29.798H57.3623V26.5085H59.2365V35H57.3623V31.379H53.754V35H51.8925V26.5085ZM63.99 35.1913C63.327 35.1913 62.7405 35.0467 62.2305 34.7577C61.729 34.4687 61.338 34.065 61.0575 33.5465C60.777 33.0195 60.6367 32.4117 60.6367 31.7233C60.6367 31.0347 60.7727 30.4312 61.0447 29.9127C61.3252 29.3857 61.7162 28.9777 62.2177 28.6887C62.7277 28.3997 63.3142 28.2552 63.9772 28.2552C64.6402 28.2552 65.2225 28.3997 65.724 28.6887C66.234 28.9692 66.625 29.3687 66.897 29.8872C67.1775 30.4057 67.3177 31.005 67.3177 31.685C67.3177 32.3735 67.1775 32.9855 66.897 33.521C66.625 34.048 66.234 34.4602 65.724 34.7577C65.2225 35.0467 64.6445 35.1913 63.99 35.1913ZM63.9772 33.6357C64.4362 33.6357 64.8017 33.4615 65.0737 33.113C65.3542 32.756 65.4945 32.2885 65.4945 31.7105C65.4945 31.1325 65.3542 30.6735 65.0737 30.3335C64.8017 29.985 64.4362 29.8107 63.9772 29.8107C63.5182 29.8107 63.1485 29.985 62.868 30.3335C62.596 30.6735 62.46 31.1325 62.46 31.7105C62.46 32.2885 62.596 32.756 62.868 33.113C63.1485 33.4615 63.5182 33.6357 63.9772 33.6357ZM71.747 35.1913C71.084 35.1913 70.4975 35.0467 69.9875 34.7577C69.486 34.4687 69.095 34.065 68.8145 33.5465C68.534 33.0195 68.3938 32.4117 68.3938 31.7233C68.3938 31.0347 68.5298 30.4312 68.8018 29.9127C69.0823 29.3857 69.4733 28.9777 69.9748 28.6887C70.4848 28.3997 71.0713 28.2552 71.7343 28.2552C72.3973 28.2552 72.9795 28.3997 73.481 28.6887C73.991 28.9692 74.382 29.3687 74.654 29.8872C74.9345 30.4057 75.0748 31.005 75.0748 31.685C75.0748 32.3735 74.9345 32.9855 74.654 33.521C74.382 34.048 73.991 34.4602 73.481 34.7577C72.9795 35.0467 72.4015 35.1913 71.747 35.1913ZM71.7343 33.6357C72.1933 33.6357 72.5588 33.4615 72.8308 33.113C73.1113 32.756 73.2515 32.2885 73.2515 31.7105C73.2515 31.1325 73.1113 30.6735 72.8308 30.3335C72.5588 29.985 72.1933 29.8107 71.7343 29.8107C71.2753 29.8107 70.9055 29.985 70.625 30.3335C70.353 30.6735 70.217 31.1325 70.217 31.7105C70.217 32.2885 70.353 32.756 70.625 33.113C70.9055 33.4615 71.2753 33.6357 71.7343 33.6357ZM78.2051 32.144V35H76.4074V25.6797H78.2051V30.8307L80.2579 28.4337H82.3871L79.7606 31.379L82.5274 34.9235L80.5766 35.1913L78.2051 32.144ZM85.4731 35.1785C84.7761 35.1785 84.2279 34.966 83.8284 34.541C83.4289 34.116 83.2291 33.5337 83.2291 32.7942V28.4337H85.0269V32.501C85.0269 32.8495 85.1119 33.1215 85.2819 33.317C85.4519 33.504 85.6814 33.5975 85.9704 33.5975C86.2594 33.5975 86.5356 33.504 86.7991 33.317C87.0711 33.13 87.2964 32.8792 87.4749 32.5647V28.4337H89.2726V35H87.4749V34.133C87.2284 34.4645 86.9436 34.7237 86.6206 34.9107C86.3061 35.0893 85.9236 35.1785 85.4731 35.1785ZM90.9254 28.4337H92.6722L92.6339 29.288H92.6849C92.9059 28.948 93.1737 28.6887 93.4882 28.5102C93.8112 28.3317 94.1767 28.2425 94.5847 28.2425C95.3242 28.2425 95.9022 28.5272 96.3187 29.0967C96.7437 29.6577 96.9562 30.444 96.9562 31.4555C96.9562 32.654 96.6417 33.5762 96.0127 34.2222C95.3922 34.8597 94.5039 35.1785 93.3479 35.1785C93.2034 35.1785 92.9867 35.17 92.6977 35.153V37.7795H90.9254V28.4337ZM93.5264 33.6102C94.0619 33.6102 94.4657 33.436 94.7377 33.0875C95.0182 32.739 95.1584 32.229 95.1584 31.5575C95.1584 31.0135 95.0692 30.5885 94.8907 30.2825C94.7207 29.968 94.4827 29.8107 94.1767 29.8107C93.9047 29.8107 93.6412 29.9297 93.3862 30.1677C93.1312 30.3972 92.9017 30.7287 92.6977 31.1622V33.4955C92.9867 33.572 93.2629 33.6102 93.5264 33.6102Z" fill="white"/>
</svg>
