<svg width="51" height="45" viewBox="0 0 51 45" fill="none" xmlns="http://www.w3.org/2000/svg">
<path opacity="0.2" d="M4.9082 44.2852C2.36914 44.2852 0.220703 42.1367 0.220703 39.5977V16.1602C0.220703 7.46875 7.25195 0.535156 15.8457 0.535156H16.627C17.9941 0.535156 18.9707 1.51172 18.9707 2.87891V7.56641C18.9707 8.83594 17.9941 9.91016 16.627 9.91016H15.8457C12.4277 9.91016 9.5957 12.6445 9.5957 16.1602V22.4102H17.4082C20.0449 22.4102 22.0957 24.4609 22.0957 27.0977V39.5977C22.0957 42.1367 20.0449 44.2852 17.4082 44.2852H4.9082ZM33.0332 44.2852C30.4941 44.2852 28.3457 42.1367 28.3457 39.5977V16.1602C28.3457 7.46875 35.377 0.535156 43.9707 0.535156H44.752C46.1191 0.535156 47.0957 1.51172 47.0957 2.87891V7.56641C47.0957 8.83594 46.1191 9.91016 44.752 9.91016H43.9707C40.5527 9.91016 37.7207 12.6445 37.7207 16.1602V22.4102H45.5332C48.1699 22.4102 50.2207 24.4609 50.2207 27.0977V39.5977C50.2207 42.1367 48.1699 44.2852 45.5332 44.2852H33.0332Z" fill="#C89D66"/>
</svg>
