<svg width="49" height="49" viewBox="0 0 49 49" fill="none" xmlns="http://www.w3.org/2000/svg">
<g clip-path="url(#clip0_1_94)">
<path d="M43.9943 23.0182C43.9943 23.6313 43.7184 24.091 43.1667 24.3976V38.4665H45.6494C46.1398 38.4665 46.3851 38.7424 46.3851 39.2941V41.7769H47.3046C47.795 41.7769 48.0402 42.0221 48.0402 42.5125V45.7309C48.0402 46.2826 47.795 46.5585 47.3046 46.5585H1.6954C1.20498 46.5585 0.95977 46.2826 0.95977 45.7309V42.5125C0.95977 42.0221 1.20498 41.7769 1.6954 41.7769H2.61494V39.2941C2.61494 38.7424 2.86015 38.4665 3.35057 38.4665H5.83333V24.3976C5.28161 24.091 5.00575 23.6313 5.00575 23.0182V22.0987H3.35057C2.86015 22.0987 2.61494 21.8535 2.61494 21.3631V18.8803H1.6954C1.20498 18.8803 0.95977 18.6351 0.95977 18.1447V15.6619C0.95977 15.3554 1.08238 15.1408 1.32759 15.0182L24.1322 1.96077C24.3774 1.83817 24.6226 1.83817 24.8678 1.96077L47.6724 15.0182C47.9176 15.1408 48.0402 15.3554 48.0402 15.6619V18.1447C48.0402 18.6351 47.795 18.8803 47.3046 18.8803H46.3851V21.3631C46.3851 21.8535 46.1398 22.0987 45.6494 22.0987H43.9943V23.0182ZM42.431 23.0182V22.0987H39.1207V23.0182H42.431ZM34.9828 38.4665H38.3851V24.3976C37.8333 24.091 37.5575 23.6313 37.5575 23.0182V22.0987H35.8103V23.0182C35.8103 23.6313 35.5345 24.091 34.9828 24.3976V38.4665ZM31.7644 38.4665H33.5115V24.5815H31.7644V38.4665ZM26.8908 38.4665H30.2011V24.3976C29.7107 24.091 29.4655 23.6313 29.4655 23.0182V22.0987H27.7184V23.0182C27.7184 23.6313 27.4425 24.091 26.8908 24.3976V38.4665ZM23.6724 38.4665H25.3276V24.5815H23.6724V38.4665ZM18.7989 38.4665H22.1092V24.3976C21.5575 24.091 21.2816 23.6313 21.2816 23.0182V22.0987H19.5345V23.0182C19.5345 23.6313 19.2893 24.091 18.7989 24.3976V38.4665ZM15.4885 38.4665H17.2356V24.5815H15.4885V38.4665ZM10.6149 38.4665H14.0172V24.3976C13.4655 24.091 13.1897 23.6313 13.1897 23.0182V22.0987H11.4425V23.0182C11.4425 23.6313 11.1667 24.091 10.6149 24.3976V38.4665ZM18.0632 22.0987H14.6609V23.0182C14.6609 23.0182 14.6916 23.0182 14.7529 23.0182H17.9713C18.0326 23.0182 18.0632 23.0182 18.0632 23.0182V22.0987ZM26.1552 22.0987H22.8448V23.0182H26.1552V22.0987ZM34.3391 22.0987H30.9368V23.0182C30.9368 23.0182 30.9674 23.0182 31.0287 23.0182H34.2471C34.3084 23.0182 34.3391 23.0182 34.3391 23.0182V22.0987ZM2.52299 16.1217V17.3171H46.477V16.1217L24.5 3.52399L2.52299 16.1217ZM4.08621 18.8803V20.6274H44.9138V18.8803H4.08621ZM9.87931 22.0987H6.56897V23.0182H9.87931V22.0987ZM7.39655 24.5815V38.4665H9.05172V24.5815H7.39655ZM46.477 44.9953V43.2481H2.52299V44.9953H46.477ZM44.9138 41.7769V40.0297H4.08621V41.7769H44.9138ZM39.9483 38.4665H41.6034V24.5815H39.9483V38.4665Z" fill="white"/>
</g>
<defs>
<clipPath id="clip0_1_94">
<rect width="48" height="48" fill="white" transform="matrix(1 0 0 -1 0.5 48.0298)"/>
</clipPath>
</defs>
</svg>
