<svg width="49" height="49" viewBox="0 0 49 49" fill="none" xmlns="http://www.w3.org/2000/svg">
<g clip-path="url(#clip0_1_100)">
<path d="M29.2816 23.3425C29.2816 23.8329 29.0057 24.0781 28.454 24.0781H20.3621C19.8103 24.0781 19.5345 23.8329 19.5345 23.3425V21.1356C19.5345 20.6452 19.7797 20.4 20.2701 20.4C20.6992 19.1739 21.5575 18.5609 22.8448 18.5609H23.5805V6.23905C22.8448 5.99384 22.3238 5.50342 22.0172 4.76778H15.4885L18.7989 13.7793C19.1667 13.9632 19.3506 14.2084 19.3506 14.5149C19.3506 15.8636 18.8755 16.9517 17.9253 17.7793C16.9751 18.6069 15.7797 19.0207 14.3391 19.0207C12.8985 19.0207 11.7184 18.6069 10.7989 17.7793C9.87931 16.9517 9.41954 15.8636 9.41954 14.5149C9.41954 14.2084 9.5728 13.9632 9.87931 13.7793L13.5575 3.84824V3.75629H13.6494V3.66434H13.7414V3.57238L13.8333 3.48043C13.9559 3.29652 14.1705 3.20457 14.477 3.20457H21.9253C22.0479 2.65284 22.3391 2.19307 22.7989 1.82526C23.2586 1.45744 23.7797 1.27353 24.3621 1.27353C24.9444 1.27353 25.4655 1.45744 25.9253 1.82526C26.3851 2.19307 26.7069 2.65284 26.8908 3.20457H34.3391C34.5843 3.20457 34.7989 3.29652 34.9828 3.48043V3.57238H35.0747V3.66434H35.1667V3.75629V3.84824L38.9368 13.7793C39.2433 13.9632 39.3966 14.2084 39.3966 14.5149C39.3966 15.8636 38.9368 16.9517 38.0172 17.7793C37.0977 18.6069 35.9023 19.0207 34.431 19.0207C32.9598 19.0207 31.7644 18.6069 30.8448 17.7793C29.9253 16.9517 29.4655 15.8636 29.4655 14.5149C29.4655 14.2084 29.6188 13.9632 29.9253 13.7793L33.3276 4.76778H26.7069C26.4004 5.50342 25.8793 5.99384 25.1437 6.23905V18.5609H25.9713C27.2586 18.5609 28.1169 19.1739 28.546 20.4C29.0364 20.4 29.2816 20.6452 29.2816 21.1356V23.3425ZM34.431 17.4574C36.2701 17.4574 37.3429 16.7525 37.6494 15.3425H31.1207C31.4885 16.7525 32.592 17.4574 34.431 17.4574ZM34.431 6.42296L31.6724 13.7793H37.1897L34.431 6.42296ZM14.3851 17.4574C16.1628 17.4574 17.2356 16.7525 17.6034 15.3425H11.0747C11.4425 16.7525 12.546 17.4574 14.3851 17.4574ZM17.0517 13.7793L14.3851 6.42296L11.6264 13.7793H17.0517ZM23.4885 3.84824C23.4885 4.33867 23.749 4.62985 24.2701 4.72181C24.7912 4.81376 25.1437 4.61453 25.3276 4.12411C25.3276 4.06281 25.3276 4.03215 25.3276 4.03215C25.3276 3.90955 25.3276 3.81759 25.3276 3.75629C25.2663 3.14326 24.9444 2.85208 24.3621 2.88273C23.7797 2.91338 23.4885 3.23522 23.4885 3.84824ZM22.8448 20.1241C22.5996 20.1241 22.3544 20.1854 22.1092 20.308H26.7069C26.4617 20.1854 26.2165 20.1241 25.9713 20.1241H22.8448ZM27.7184 22.5149V21.9632H21.0977V22.5149H27.7184ZM45.8333 16.7218L47.7644 29.0436C47.7644 29.1049 47.7644 29.1663 47.7644 29.2276C47.8257 30.944 47.3352 32.5379 46.2931 34.0092C46.2931 34.0092 46.2625 34.0092 46.2011 34.0092L41.4195 39.8942C41.113 40.262 40.9904 40.6912 41.0517 41.1816L41.1437 42.4689L41.4195 42.6528C41.91 42.8368 42.0326 43.1739 41.7874 43.6643L39.8563 47.8942C39.6111 48.3846 39.2433 48.5072 38.7529 48.262L29.4655 43.8482C28.9751 43.603 28.8525 43.2659 29.0977 42.8368L31.1207 38.6069C31.3659 38.1164 31.7031 37.9938 32.1322 38.239L32.7759 38.5149C32.7146 35.8789 33.6954 33.764 35.7184 32.1701L36.0862 31.8942C36.5766 31.4651 36.9751 30.944 37.2816 30.331L39.1207 26.4689C39.7337 25.1816 40.7452 24.4459 42.1552 24.262L42.0632 19.3885C42.0019 18.5302 42.2625 17.7793 42.8448 17.1356C43.4272 16.4919 44.1169 16.1394 44.9138 16.0781C45.4655 16.0168 45.772 16.2314 45.8333 16.7218ZM38.7529 46.5149L40.0402 43.6643L32.2241 39.9862L30.8448 42.7448L38.7529 46.5149ZM45.0057 33.0896C45.8027 31.9249 46.2011 30.6375 46.2011 29.2276L44.3621 17.9172C43.8716 18.2237 43.6264 18.6835 43.6264 19.2965L43.8103 24.354C43.9943 24.4153 44.1782 24.5072 44.3621 24.6299C44.8525 24.8751 45.0057 25.2429 44.8218 25.7333L41.7874 31.9862C41.6647 32.2927 41.4502 32.4613 41.1437 32.4919C40.8372 32.5226 40.592 32.4 40.408 32.1241C40.2241 31.8482 40.1935 31.5877 40.3161 31.3425L42.9828 25.8253C41.818 25.7027 41.0211 26.1624 40.592 27.2046L38.7529 31.0666C38.3238 31.8636 37.772 32.5379 37.0977 33.0896L36.7299 33.3655C34.8295 34.8981 34.0632 36.8597 34.431 39.2505L39.4885 41.6413L39.3966 41.2735C39.3353 40.354 39.6111 39.5571 40.2241 38.8827L45.0057 33.0896ZM17.6954 38.6069L19.7184 42.8368C19.9023 43.2659 19.7797 43.603 19.3506 43.8482L10.0632 48.262C9.5728 48.5072 9.20498 48.3846 8.95977 47.8942L6.93678 43.6643C6.75287 43.1739 6.87548 42.8368 7.3046 42.6528L7.67241 42.4689L7.76437 41.1816C7.82567 40.6912 7.67241 40.262 7.3046 39.8942L2.52299 34.0092C1.48084 32.5379 0.95977 30.944 0.95977 29.2276C0.95977 29.1663 0.95977 29.1049 0.95977 29.0436L2.98276 16.7218C3.04406 16.2314 3.31992 16.0168 3.81034 16.0781C4.66858 16.1394 5.37356 16.4919 5.92529 17.1356C6.47701 17.7793 6.75287 18.5302 6.75287 19.3885L6.56897 24.262C8.04023 24.4459 9.08238 25.1816 9.6954 26.4689L11.5345 30.331C11.7797 30.944 12.1782 31.4651 12.7299 31.8942L13.0977 32.1701C15.1207 33.764 16.1015 35.8789 16.0402 38.5149L16.592 38.239C17.0824 37.9938 17.4502 38.1164 17.6954 38.6069ZM3.81034 33.0896L8.59195 38.8827C9.14368 39.5571 9.38889 40.354 9.32759 41.2735V41.6413L14.3851 39.2505C14.7529 36.8597 13.9866 34.8981 12.0862 33.3655L11.7184 33.0896C10.9828 32.5379 10.431 31.8636 10.0632 31.0666L8.22414 27.2046C7.73372 26.1624 6.93678 25.7027 5.83333 25.8253L8.5 31.3425C8.62261 31.5877 8.59195 31.8482 8.40805 32.1241C8.22414 32.4 7.97893 32.5226 7.67241 32.4919C7.3659 32.4613 7.15134 32.2927 7.02874 31.9862L3.99425 25.7333C3.74904 25.2429 3.87165 24.8751 4.36207 24.6299C4.54598 24.5072 4.76054 24.4153 5.00575 24.354L5.0977 19.2965C5.159 18.6835 4.91379 18.2237 4.36207 17.9172L2.61494 29.2276C2.61494 30.6375 3.01341 31.9249 3.81034 33.0896ZM10.0632 46.5149L17.8793 42.7448L16.592 39.9862L8.77586 43.6643L10.0632 46.5149Z" fill="white"/>
</g>
<defs>
<clipPath id="clip0_1_100">
<rect width="48" height="48" fill="white" transform="matrix(1 0 0 -1 0.5 48.6299)"/>
</clipPath>
</defs>
</svg>
