<svg width="49" height="49" viewBox="0 0 49 49" fill="none" xmlns="http://www.w3.org/2000/svg">
<g clip-path="url(#clip0_1_88)">
<path d="M39.8563 35.0146C40.8372 35.2598 41.6954 35.689 42.431 36.302C43.1667 36.915 43.7337 37.6507 44.1322 38.5089C44.5307 39.3671 44.7299 40.2867 44.7299 41.2675V45.7733C44.7299 46.4476 44.5 47.0146 44.0402 47.4744C43.5805 47.9342 43.0134 48.1641 42.3391 48.1641H3.35057C2.67625 48.1641 2.1092 47.9342 1.64943 47.4744C1.18966 47.0146 0.95977 46.4476 0.95977 45.7733V41.2675C0.95977 39.7962 1.40421 38.4782 2.2931 37.3135C3.18199 36.1487 4.36207 35.3825 5.83333 35.0146L8.77586 34.279C8.83716 33.9112 9.02107 33.6966 9.32759 33.6353L14.0172 32.0721C14.2011 31.7656 14.4157 31.5204 14.6609 31.3365L15.8563 30.6008C12.9751 27.7809 11.5345 24.1641 11.5345 19.7503C11.5345 19.6277 11.5345 19.4744 11.5345 19.2905C11.4732 19.2292 11.4425 19.1679 11.4425 19.1066C10.8908 16.4706 10.4617 13.007 10.1552 8.71579C10.0326 7.30582 10.4464 6.0951 11.3966 5.0836C12.3467 4.07211 13.5268 3.56636 14.9368 3.56636H15.2126C17.0517 1.91119 19.5958 1.0836 22.8448 1.0836C24.6839 1.0836 26.5843 1.20621 28.546 1.45142C30.4464 1.75793 31.9943 2.64682 33.1897 4.11808C34.3851 5.58935 34.9215 7.27517 34.7989 9.17556C34.6149 12.2407 34.3697 15.0606 34.0632 17.6353C34.0019 17.6966 33.9713 17.7273 33.9713 17.7273C34.0939 18.4629 34.1552 19.1372 34.1552 19.7503C34.1552 24.1641 32.7146 27.7809 29.8333 30.6008L31.0287 31.3365C31.2739 31.5204 31.4885 31.7656 31.6724 32.0721L36.3621 33.6353C36.6686 33.6966 36.8525 33.9112 36.9138 34.279L39.8563 35.0146ZM31.1207 38.8767C30.9981 38.6315 30.9828 38.3863 31.0747 38.1411C31.1667 37.8959 31.3352 37.7426 31.5805 37.6813L34.431 37.0376L35.1667 34.8307L32.0402 33.7273C31.9789 33.9725 31.9176 34.1871 31.8563 34.371C31.2433 35.5357 30.5077 36.9763 29.6494 38.6928L28.546 40.9916L28.454 41.0836C28.454 41.0836 28.454 41.1143 28.454 41.1756C27.9023 42.6468 27.6571 44.4553 27.7184 46.6008H29.6494L32.5 40.9916L31.1207 38.8767ZM25.1437 46.6008H26.1552C26.1552 44.5166 26.4004 42.6775 26.8908 41.0836C26.3391 40.5932 25.7874 40.1641 25.2356 39.7962V40.0721C25.2356 40.6851 24.9904 41.1449 24.5 41.4514L25.1437 46.6008ZM19.5345 46.6008H20.546L21.1897 41.4514C20.6992 41.1449 20.454 40.6851 20.454 40.0721V39.7962C19.9023 40.1641 19.3506 40.5932 18.7989 41.0836C19.3506 42.6775 19.5958 44.5166 19.5345 46.6008ZM22.8448 38.4169C22.5996 38.5395 22.3238 38.6928 22.0172 38.8767V40.0721C22.0172 40.1334 22.0172 40.1641 22.0172 40.1641H23.6724C23.6724 40.1641 23.6724 40.1334 23.6724 40.0721V38.8767C23.3659 38.6928 23.09 38.5395 22.8448 38.4169ZM22.6609 41.6353L22.1092 46.6008H23.5805L23.0287 41.6353H22.6609ZM30.477 33.7273C30.7222 33.2369 30.6303 32.869 30.2011 32.6238L29.4655 32.0721L24.2241 37.4054C25.3276 37.9572 26.431 38.6928 27.5345 39.6123C28.0862 38.5089 29.067 36.5472 30.477 33.7273ZM32.592 19.7503L32.6839 19.8422C32.6839 19.7809 32.6839 19.7503 32.6839 19.7503C32.6839 18.2177 32.2241 16.2867 31.3046 13.9572H30.8448C23.4272 14.0185 18.1245 13.528 14.9368 12.4859C13.6494 14.6315 13.0057 17.053 13.0057 19.7503C13.0057 19.7503 13.0057 19.7809 13.0057 19.8422L13.0977 19.7503H15.5805V18.9227C15.5805 18.4323 15.8257 18.1871 16.3161 18.1871H21.1897C21.7414 18.1871 22.0172 18.4323 22.0172 18.9227V19.1066C22.2625 19.0453 22.5383 19.0146 22.8448 19.0146C23.1513 19.0146 23.4272 19.0453 23.6724 19.1066V18.9227C23.6724 18.4323 23.9483 18.1871 24.5 18.1871H29.3736C29.864 18.1871 30.1092 18.4323 30.1092 18.9227V19.7503H32.592ZM11.6264 8.62383C11.8103 10.892 12.0249 12.9457 12.2701 14.7848C12.6992 13.4974 13.251 12.302 13.9253 11.1985C14.1705 10.8307 14.477 10.7388 14.8448 10.9227C16.3161 11.4131 18.0326 11.7809 19.9943 12.0261C21.9559 12.2713 23.6111 12.4093 24.9598 12.4399C26.3084 12.4706 28.2701 12.4859 30.8448 12.4859H31.7644C32.1322 12.4859 32.3774 12.6392 32.5 12.9457C32.6226 13.2522 32.7452 13.5894 32.8678 13.9572C33.0517 12.2407 33.205 10.6162 33.3276 9.0836C33.3889 7.55104 32.9444 6.20238 31.9943 5.03762C31.0441 3.87288 29.8333 3.19854 28.3621 3.01464C26.4617 2.76943 24.6226 2.64682 22.8448 2.64682C19.9023 2.64682 17.6341 3.38245 16.0402 4.85372C15.9176 4.97632 15.7337 5.03762 15.4885 5.03762H14.9368C13.9559 5.03762 13.1437 5.39012 12.5 6.0951C11.8563 6.80008 11.5651 7.64299 11.6264 8.62383ZM13.0977 21.3135C13.4042 24.3173 14.4923 26.8461 16.3621 28.8997C18.2318 30.9533 20.3927 31.9802 22.8448 31.9802C25.2969 31.9802 27.4579 30.9533 29.3276 28.8997C31.1973 26.8461 32.2854 24.3173 32.592 21.3135H30.1092V21.4054C30.1092 21.8959 29.8487 22.1411 29.3276 22.1411C28.8065 22.1411 28.546 21.8959 28.546 21.4054V19.6583H27.7184V20.5779C27.7184 21.0683 27.4579 21.3135 26.9368 21.3135C26.4157 21.3135 26.1552 21.0683 26.1552 20.5779V19.6583H25.2356V21.4054C25.2356 21.8959 24.9751 22.1411 24.454 22.1411C23.933 22.1411 23.6724 21.8959 23.6724 21.4054C23.6724 20.7924 23.3966 20.4859 22.8448 20.4859C22.2931 20.4859 22.0172 20.7924 22.0172 21.4054C22.0172 21.8959 21.7567 22.1411 21.2356 22.1411C20.7146 22.1411 20.454 21.8959 20.454 21.4054V19.6583H19.5345V20.5779C19.5345 21.0683 19.2739 21.3135 18.7529 21.3135C18.2318 21.3135 17.9713 21.0683 17.9713 20.5779V19.6583H17.1437V21.4054C17.1437 21.8959 16.8831 22.1411 16.3621 22.1411C15.841 22.1411 15.5805 21.8959 15.5805 21.4054V21.3135H13.0977ZM26.7069 32.7158C25.4808 33.2675 24.1935 33.5434 22.8448 33.5434C21.4962 33.5434 20.2088 33.2675 18.9828 32.7158L22.8448 36.5779L26.7069 32.7158ZM15.4885 32.6238C15.0594 32.869 14.9674 33.2369 15.2126 33.7273C16.6839 36.6698 17.6648 38.6315 18.1552 39.6123C19.2586 38.6928 20.3621 37.9572 21.4655 37.4054L16.2241 32.0721L15.4885 32.6238ZM13.6494 33.7273L10.523 34.8307L11.2586 37.0376L14.1092 37.6813C14.3544 37.7426 14.523 37.8959 14.6149 38.1411C14.7069 38.3863 14.6916 38.6315 14.569 38.8767L13.1897 40.8997L16.0402 46.6008H18.0632C18.0632 44.4553 17.7874 42.6468 17.2356 41.1756C17.2356 41.1756 17.205 41.1143 17.1437 40.9916L16.0402 38.6928C15.4885 37.5893 14.7529 36.1487 13.8333 34.371C13.772 34.1871 13.7107 33.9725 13.6494 33.7273ZM2.43103 45.7733C2.43103 46.325 2.73755 46.6008 3.35057 46.6008H8.22414V44.1181C8.22414 43.6277 8.48467 43.3825 9.00575 43.3825C9.52682 43.3825 9.78736 43.6277 9.78736 44.1181V46.6008H14.2931L11.6264 41.2675C11.4425 40.961 11.4425 40.6851 11.6264 40.4399L12.6379 38.9687L10.431 38.4169C10.1858 38.2943 10.0019 38.1104 9.87931 37.8652L9.23563 35.7503L6.20115 36.4859C5.0977 36.7924 4.19349 37.3901 3.48851 38.279C2.78352 39.1679 2.43103 40.1641 2.43103 41.2675V45.7733ZM43.2586 45.7733V41.2675C43.2586 40.1641 42.9061 39.1679 42.2011 38.279C41.4962 37.3901 40.592 36.7924 39.4885 36.4859L36.454 35.7503L35.8103 37.8652C35.6877 38.1104 35.5038 38.2943 35.2586 38.4169L33.0517 38.9687L34.0632 40.4399C34.2471 40.6851 34.2471 40.961 34.0632 41.2675L31.3966 46.6008H35.9023V44.1181C35.9023 43.6277 36.1628 43.3825 36.6839 43.3825C37.205 43.3825 37.4655 43.6277 37.4655 44.1181V46.6008H42.3391C42.9521 46.6008 43.2586 46.325 43.2586 45.7733ZM19.1667 27.6583C18.7375 27.3518 18.6609 26.9993 18.9368 26.6008C19.2126 26.2024 19.5651 26.1257 19.9943 26.371C20.7299 26.8614 21.6801 27.1066 22.8448 27.1066C24.0096 27.1066 24.9598 26.8614 25.6954 26.371C26.1245 26.1257 26.477 26.2024 26.7529 26.6008C27.0287 26.9993 26.9521 27.3518 26.523 27.6583C25.6034 28.3326 24.3774 28.6698 22.8448 28.6698C21.3123 28.6698 20.0862 28.3326 19.1667 27.6583Z" fill="white"/>
</g>
<defs>
<clipPath id="clip0_1_88">
<rect width="48" height="48" fill="white" transform="matrix(1 0 0 -1 0.5 48.4399)"/>
</clipPath>
</defs>
</svg>
